<svg width="141" height="102" viewBox="0 0 141 102" fill="none" xmlns="http://www.w3.org/2000/svg">
<path d="M17 29.0496C21.2071 29.0496 25.4296 28.9214 29.6346 29.0772C37.7703 29.3785 45.6261 31.5355 53.7959 31.5355C59.9095 31.5355 66.078 31.2422 72.1832 31.7565C76.416 32.1131 80.5252 33.5941 84.7539 33.911C90.3624 34.3313 96.0121 33.9316 101.628 34.0215C104.666 34.0701 107.784 35.045 110.769 35.7617C111.943 36.0437 115.621 35.1818 116.351 36.2865C117.549 38.0978 122.123 37.999 124 37.999" stroke="#6EFC57" stroke-width="20" stroke-linecap="square"/>
<path d="M124 42C122.539 43.1478 119.352 42.593 117.611 42.9C115.026 43.3558 112.49 43.454 109.926 44.05C104.171 45.3876 98.5297 46.6126 92.6574 47.05C85.5956 47.576 78.5306 47.3384 71.4537 47.4C66.4771 47.4433 60.883 47.2618 55.9444 47.95C51.6684 48.5459 47.3051 48.3 42.9815 48.3C40.892 48.3 38.7158 48.1106 36.6389 48.4C34.6297 48.68 32.6763 49.5358 30.6667 49.65C26.5613 49.8834 22.7639 51 18.5833 51C17.0556 51 15.5278 51 14 51" stroke="#6EFC57" stroke-width="20" stroke-linecap="square"/>
<path d="M11 52C18.8782 52.1705 26.7399 52.4111 34.622 52.4913C38.6556 52.5323 42.7208 53.2165 46.6853 54.0744C52.3564 55.3015 57.8027 55.4035 63.5646 55.4391C73.569 55.5008 83.424 57.2366 93.4247 57.4043C95.7943 57.444 97.9418 58.3985 100.259 58.769C103.048 59.2148 106.027 58.8781 108.836 58.8781C114.891 58.8781 120.945 58.8781 127 58.8781" stroke="#6EFC57" stroke-width="20" stroke-linecap="square"/>
<path d="M127 62C125.633 62.8521 124.764 63.8738 123.168 64.3077C120.415 65.056 117.704 65.4933 114.938 66.3077C112.664 66.9773 110.129 67.0255 107.797 67.5384C104.737 68.2116 101.371 68.6754 98.2613 68.8974C92.8665 69.2824 87.1806 70.0931 81.8889 71.4871C75.3403 73.2122 67.9105 72.1538 61.2493 72.1538C53.963 72.1538 46.6767 72.1538 39.3904 72.1538C37.3479 72.1538 35.4965 72.7905 33.4685 72.9743C29.5268 73.3314 25.3344 72.3928 21.4505 73.3076C18.4068 74.0245 14.15 73.9999 11 73.9999" stroke="#6EFC57" stroke-width="20" stroke-linecap="square"/>
<path d="M17 77C17.8423 77.6087 18.9606 77.44 19.9315 77.44C22.6526 77.44 25.3737 77.44 28.0947 77.44C30.9469 77.44 33.671 77.5185 36.5059 77.88C42.3572 78.6262 48.1877 78.2774 53.9373 79.8356C62.7341 82.2195 71.6168 83.16 80.6593 83.16C85.4625 83.16 90.2657 83.16 95.0689 83.16C97.5798 83.16 100.29 82.8181 102.736 83.5022C104.972 84.1277 107.492 83.8261 109.772 84.3822C112.172 84.9677 114.604 85.8 117.078 85.8C120.606 85.8 123.616 88 127 88" stroke="#6EFC57" stroke-width="20" stroke-linecap="square"/>
<path d="M109 11V91C109 96.5228 104.523 101 99 101H39C33.4772 101 29 96.5229 29 91V20L49 1H99C104.523 1 109 5.47715 109 11Z" fill="white"/>
<path d="M29 20V91C29 96.5229 33.4772 101 39 101H99C104.523 101 109 96.5228 109 91V11C109 5.47715 104.523 1 99 1H49M29 20L49 1M29 20H39C44.5228 20 49 15.5228 49 10V1M44 28.5H95M44 43.5H95M44 59.5H95M56 76.5H95" stroke="black" stroke-width="2"/>
</svg>
