<?xml version="1.0" standalone="no"?>
<!DOCTYPE svg PUBLIC "-//W3C//DTD SVG 20010904//EN"
 "http://www.w3.org/TR/2001/REC-SVG-20010904/DTD/svg10.dtd">
<svg version="1.0" xmlns="http://www.w3.org/2000/svg"
 width="1128.000000pt" height="1128.000000pt" viewBox="0 0 1128.000000 1128.000000"
 preserveAspectRatio="xMidYMid meet">
<metadata>
Created by potrace 1.14, written by Peter Selinger 2001-2017
</metadata>
<g transform="translate(0.000000,1128.000000) scale(0.100000,-0.100000)"
fill="#000000" stroke="none">
<path d="M3918 9683 l-3 -38 -24 27 -24 27 -49 -47 c-28 -26 -73 -69 -102 -95
-55 -52 -268 -255 -396 -377 -44 -41 -141 -133 -216 -205 -75 -71 -171 -163
-212 -202 -41 -40 -76 -73 -78 -73 -1 0 -29 -26 -61 -57 -33 -32 -130 -125
-217 -208 -87 -82 -178 -169 -203 -192 -24 -24 -50 -43 -56 -44 -45 -3 -179 0
-183 4 -4 3 -16 2 -29 -3 -13 -5 -25 -7 -27 -5 -5 5 -79 7 -213 4 -27 -1 -322
-2 -654 -3 -602 -1 -604 -1 -611 -22 -5 -11 -4 -27 0 -34 5 -8 5 -21 2 -29 -7
-14 -8 -37 -3 -51 5 -13 5 -100 1 -100 -7 0 -4 -89 3 -97 4 -3 2 -13 -3 -23
-5 -10 -7 -20 -3 -23 7 -8 10 -97 3 -97 -7 0 -4 -89 3 -97 4 -3 2 -13 -3 -23
-5 -10 -7 -20 -3 -23 7 -8 10 -97 3 -97 -7 0 -3 -90 4 -97 3 -3 1 -14 -4 -24
-6 -10 -6 -20 -2 -23 5 -3 6 -26 2 -50 -4 -25 -3 -51 1 -58 4 -6 3 -20 -2 -29
-5 -10 -5 -20 -1 -23 5 -3 6 -26 2 -50 -4 -25 -3 -51 1 -58 4 -6 3 -20 -2 -29
-5 -10 -5 -20 -1 -23 5 -3 6 -26 2 -50 -4 -25 -3 -51 1 -58 4 -6 4 -19 -1 -29
-5 -9 -7 -19 -3 -22 7 -8 10 -97 3 -97 -4 0 -4 -87 0 -100 1 -3 1 -17 0 -31 0
-15 5 -28 12 -31 20 -6 1197 -2 1204 4 3 4 19 2 35 -2 18 -5 29 -5 29 1 0 6 7
6 19 -1 13 -6 28 -7 44 -1 14 5 30 6 38 0 8 -5 21 -6 30 -4 17 6 42 6 155 4
39 -1 76 1 82 5 7 4 12 2 12 -4 0 -6 5 -8 10 -5 6 4 10 -7 10 -25 0 -17 -6
-33 -12 -35 -19 -6 -78 -15 -123 -19 -22 -2 -53 -6 -70 -9 -16 -4 -48 -9 -70
-12 -23 -3 -52 -8 -65 -11 -14 -3 -38 -7 -55 -8 -108 -13 -133 -17 -155 -21
-14 -3 -72 -8 -129 -10 -56 -3 -106 -7 -110 -9 -4 -3 -13 -1 -21 4 -8 5 -22 5
-32 -1 -12 -6 -18 -6 -18 0 0 7 -8 7 -22 2 -13 -5 -32 -5 -43 -1 -11 4 -30 4
-41 -1 -12 -4 -24 -5 -27 -3 -8 9 -70 10 -98 3 -15 -4 -32 -3 -40 1 -7 5 -21
4 -31 -1 -12 -6 -18 -6 -18 0 0 7 -8 7 -23 2 -13 -5 -30 -6 -37 -1 -7 4 -25 4
-41 0 -15 -5 -30 -6 -32 -3 -8 8 -70 9 -98 2 -15 -4 -32 -3 -40 1 -7 5 -21 4
-31 -1 -12 -6 -18 -6 -18 0 0 7 -8 7 -22 2 -13 -5 -32 -5 -43 -1 -11 4 -30 4
-41 -1 -12 -4 -24 -5 -27 -3 -8 9 -70 10 -98 3 -15 -4 -32 -3 -40 1 -7 5 -21
4 -31 -1 -12 -6 -18 -6 -18 0 0 6 -11 6 -30 1 -16 -5 -30 -5 -30 0 0 4 -9 6
-19 3 -14 -3 -21 -15 -23 -37 l-3 -31 -107 1 c-60 0 -108 -2 -109 -5 -1 -3 -2
-73 -4 -156 -2 -82 -6 -262 -10 -400 -3 -137 -8 -353 -10 -480 -3 -126 -7
-303 -9 -392 -3 -121 -1 -163 7 -164 43 -3 289 -8 494 -11 134 -2 243 -6 243
-9 0 -4 18 -3 40 1 22 4 42 5 44 2 3 -2 88 -6 188 -7 162 -3 438 -10 813 -20
66 -2 171 -4 233 -4 105 -1 112 -2 112 -21 0 -11 -3 -20 -7 -21 -5 0 -96 -2
-203 -3 -210 -3 -294 -11 -440 -41 -14 -3 -41 -8 -60 -11 -19 -3 -41 -7 -47
-9 -7 -2 -50 -7 -95 -11 -46 -3 -86 -8 -89 -10 -4 -2 -30 12 -58 31 -28 19
-55 35 -60 35 -6 0 -18 -13 -27 -30 -10 -16 -31 -34 -46 -39 -16 -6 -27 -7
-24 -3 4 7 -21 6 -117 -1 -21 -1 -43 0 -49 4 -5 4 -25 3 -43 -1 -18 -4 -39 -4
-45 0 -7 4 -26 4 -41 0 -17 -5 -31 -5 -35 1 -3 5 -10 7 -15 4 -10 -7 -138 -8
-179 -2 -14 2 -30 -1 -37 -5 -6 -5 -14 -5 -17 1 -4 6 -15 7 -30 1 -12 -4 -29
-5 -36 0 -7 5 -24 4 -37 -1 -15 -5 -23 -5 -23 2 0 6 -6 6 -18 0 -10 -5 -24 -6
-31 -1 -8 4 -25 5 -40 1 -28 -7 -90 -6 -98 3 -3 2 -16 1 -30 -5 -13 -5 -22 -5
-19 -1 3 5 -8 6 -25 4 -45 -7 -43 0 -36 -190 1 -28 -2 -52 -6 -52 -5 0 -6 -4
-3 -8 5 -9 7 -73 7 -257 0 -60 1 -134 2 -163 1 -28 -2 -52 -6 -52 -5 0 -6 -4
-3 -8 5 -9 7 -73 7 -257 0 -60 1 -134 2 -163 1 -28 0 -52 -3 -52 -3 0 -3 -52
0 -116 3 -64 3 -118 1 -120 -6 -5 -1 -134 5 -156 4 -13 11 -15 32 -9 15 5 36
6 47 4 18 -4 55 -5 88 -2 6 0 32 0 57 0 74 -1 165 -1 183 0 6 0 37 0 67 0 30
0 64 0 75 0 11 0 35 -1 53 -3 17 -2 32 -1 32 4 0 4 10 4 23 -1 12 -5 25 -8 29
-7 4 0 28 -15 55 -35 26 -20 62 -45 78 -55 17 -10 32 -21 35 -25 18 -21 199
-101 263 -115 4 -1 9 -3 12 -4 7 -3 13 -5 70 -15 28 -4 57 -10 65 -12 8 -3
211 -6 450 -6 434 -2 435 -2 436 -23 1 -12 4 -25 7 -31 3 -5 2 -15 -3 -22 -4
-8 -4 -27 0 -42 5 -16 5 -31 0 -34 -5 -3 -5 -18 0 -34 4 -16 6 -32 2 -35 -9
-10 1 -181 15 -236 3 -14 8 -34 10 -44 13 -69 63 -182 119 -269 129 -200 364
-352 599 -387 71 -10 5042 -8 5098 3 85 16 270 89 297 117 3 3 25 18 50 35
108 71 230 219 291 352 34 75 39 78 89 59 8 -3 26 -8 40 -10 14 -3 59 -13 100
-21 41 -9 86 -18 100 -20 14 -2 34 -6 46 -9 22 -4 167 -17 243 -21 25 -1 102
-21 171 -44 69 -24 130 -44 135 -45 6 -1 16 -5 23 -9 6 -5 12 -6 12 -3 0 3 24
-3 54 -14 30 -10 57 -16 59 -13 3 2 14 0 24 -5 10 -5 41 -13 68 -16 28 -4 57
-9 65 -11 21 -6 198 -17 235 -15 17 1 37 2 45 1 52 -2 174 0 178 3 2 2 17 0
33 -4 16 -5 31 -5 34 0 3 5 11 7 18 5 24 -9 77 -12 77 -5 0 5 8 6 18 4 28 -7
142 -10 142 -3 0 3 21 3 48 0 26 -4 68 -4 95 -1 26 3 50 3 55 -2 16 -16 33 10
32 48 0 21 -1 54 -1 72 0 17 1 55 1 82 0 28 0 58 0 68 0 9 0 28 -1 42 -1 31
-1 66 0 102 1 16 1 40 2 55 1 37 1 72 0 103 -1 14 -1 33 -1 43 0 9 0 38 0 65
0 26 1 61 3 77 1 17 -1 42 -5 57 -3 15 -3 30 2 33 5 3 5 18 1 33 -4 15 -6 38
-4 52 4 36 5 86 2 156 -1 34 1 66 5 72 3 6 2 13 -3 16 -5 3 -6 21 -2 38 4 18
4 44 1 58 -4 14 -2 31 3 38 5 6 5 12 1 12 -5 0 -7 32 -4 71 3 39 2 73 -2 75
-4 3 -4 13 0 24 4 11 6 39 4 64 l-4 45 -394 0 c-363 1 -431 3 -459 20 -5 3
-14 6 -20 7 -5 1 -57 18 -115 37 -105 35 -189 58 -300 84 -14 3 -68 11 -115
18 -11 1 -38 3 -60 4 -51 2 -32 14 50 32 79 17 70 15 150 34 39 9 81 19 95 21
14 3 33 7 42 10 9 3 27 7 40 10 13 3 28 6 33 8 6 2 28 6 50 11 22 4 45 10 50
14 6 3 21 7 35 9 90 11 315 119 445 213 50 36 139 95 198 132 l108 67 84 0 83
0 4 35 c2 19 0 41 -4 49 -6 10 3 21 29 37 21 13 39 27 41 31 2 4 8 8 13 8 6 0
40 20 77 44 37 23 77 48 89 54 41 22 55 42 41 59 -7 8 -17 23 -23 33 -5 9 -20
35 -33 56 -12 22 -35 58 -50 81 -69 109 -172 281 -181 304 -5 14 -6 32 -1 39
4 7 5 24 1 39 -4 14 -6 40 -4 56 8 69 8 91 2 117 -4 15 -4 30 1 33 5 3 5 18 1
33 -4 15 -6 38 -4 52 4 36 5 86 2 156 -1 34 1 66 5 72 3 6 2 13 -3 16 -5 3 -6
21 -2 38 4 18 4 44 1 58 -4 14 -4 32 0 40 4 8 4 25 -1 38 -8 22 -10 22 -219
22 -115 0 -210 3 -210 8 0 4 18 19 39 35 31 21 50 27 94 27 50 0 55 2 59 25 3
14 2 25 -3 25 -4 0 -3 14 2 30 6 17 15 30 19 30 5 0 15 6 22 13 7 7 31 26 53
42 22 17 45 35 51 40 18 15 44 36 94 74 87 67 86 65 43 119 -21 26 -42 52 -48
59 -5 6 -20 24 -31 40 -12 15 -63 80 -113 143 -67 85 -91 121 -88 138 2 12 1
22 -4 22 -4 0 -4 13 1 30 5 18 5 32 -1 35 -5 4 -5 13 0 24 6 10 6 23 1 31 -5
8 -5 21 1 31 5 11 5 20 0 24 -6 3 -6 17 -1 35 5 17 5 30 0 30 -5 0 -5 12 -1
28 5 15 5 37 0 49 -5 13 -4 25 1 28 6 3 6 15 0 30 -5 14 -5 27 0 30 5 3 5 18
0 35 -5 18 -5 32 1 35 5 4 5 14 -1 25 -6 11 -6 21 -1 25 5 3 6 17 2 33 -4 15
-4 39 0 55 4 15 3 27 -1 27 -5 0 -5 13 0 30 5 18 5 32 -1 35 -5 4 -5 13 0 24
5 9 6 23 1 31 -4 7 -6 19 -3 27 6 14 5 15 -112 13 -44 -1 -96 0 -115 1 -19 0
-42 1 -50 0 -8 0 -62 0 -120 0 -58 1 -112 1 -120 0 -78 -2 -254 0 -261 4 -4 3
-10 1 -14 -5 -4 -6 -11 -7 -17 -4 -6 4 -43 6 -82 6 -39 0 -73 2 -76 6 -20 27
-300 155 -300 137 0 -2 -18 2 -40 10 -22 8 -41 14 -43 14 -1 -1 -36 2 -78 6
-95 9 -260 12 -264 5 -10 -15 -205 26 -227 48 -7 7 -8 12 -2 12 10 0 10 63 -1
80 -3 5 -1 11 4 15 7 3 7 15 1 30 -6 15 -6 27 1 30 5 4 6 13 0 22 -5 9 -5 29
-1 45 5 16 5 28 0 28 -6 0 -6 10 0 24 5 13 6 26 3 29 -8 9 -9 78 -1 83 4 3 3
16 -2 29 -6 16 -6 25 0 25 6 0 6 9 0 24 -5 13 -6 27 -3 30 8 8 9 86 1 86 -3 0
-3 12 1 27 4 16 4 45 1 66 -4 20 -3 40 1 43 5 3 5 14 -1 24 -6 12 -7 21 0 25
5 3 6 15 1 27 -4 12 -5 37 -1 55 5 18 4 36 -1 39 -5 3 -5 12 0 23 6 10 6 23 1
31 -5 8 -5 21 0 30 5 9 5 22 0 30 -5 8 -5 21 0 30 5 9 5 22 0 30 -5 8 -5 21 0
31 5 9 7 19 4 22 -3 3 -7 36 -9 74 -5 84 -12 130 -26 155 -6 11 -8 22 -6 25 9
8 -73 193 -85 193 -5 0 -8 6 -8 14 0 39 -158 207 -260 276 -86 59 -205 109
-321 136 -19 5 -964 10 -2101 11 l-2067 3 -3 -37z"/>
</g>
</svg>
